<svg xmlns="http://www.w3.org/2000/svg" viewBox="0 0 400 400">
  <rect width="400" height="400" fill="#E8F5E9"/>
  <ellipse cx="200" cy="240" rx="80" ry="90" fill="#F5F5F5"/>
  <circle cx="200" cy="170" r="60" fill="#F5F5F5"/>
  <!-- 耳朵 -->
  <ellipse cx="160" cy="100" rx="18" ry="50" fill="#F5F5F5" stroke="#DDD" stroke-width="2"/>
  <ellipse cx="240" cy="100" rx="18" ry="50" fill="#F5F5F5" stroke="#DDD" stroke-width="2"/>
  <ellipse cx="160" cy="100" rx="10" ry="35" fill="#FFB6C1"/>
  <ellipse cx="240" cy="100" rx="10" ry="35" fill="#FFB6C1"/>
  <!-- 眼睛 -->
  <circle cx="175" cy="160" r="12" fill="#333"/>
  <circle cx="225" cy="160" r="12" fill="#333"/>
  <circle cx="175" cy="155" r="5" fill="white"/>
  <circle cx="225" cy="155" r="5" fill="white"/>
  <!-- 鼻子 -->
  <ellipse cx="200" cy="180" rx="8" ry="6" fill="#FFB6C1"/>
  <!-- 嘴巴 -->
  <path d="M190,190 Q200,200 210,190" stroke="#FFB6C1" fill="none" stroke-width="2"/>
  <!-- 腮红 -->
  <circle cx="155" cy="175" r="10" fill="#FFB6C1" opacity="0.5"/>
  <circle cx="245" cy="175" r="10" fill="#FFB6C1" opacity="0.5"/>
  <!-- 前脚 -->
  <ellipse cx="160" cy="330" rx="20" ry="15" fill="#F5F5F5" stroke="#DDD" stroke-width="2"/>
  <ellipse cx="240" cy="330" rx="20" ry="15" fill="#F5F5F5" stroke="#DDD" stroke-width="2"/>
</svg>